<?xml version="1.0" encoding="UTF-8"?>
<svg height="128px" viewBox="0 0 128 128" width="128px" xmlns="http://www.w3.org/2000/svg" xmlns:xlink="http://www.w3.org/1999/xlink">
    <linearGradient id="a" gradientUnits="userSpaceOnUse" x1="61.13679643347" x2="66.96079945438" y1="112.90134562106" y2="9.26012744968">
        <stop offset="0" stop-color="#1155d9"/>
        <stop offset="0.07" stop-color="#1c55dc"/>
        <stop offset="0.39" stop-color="#5058eb"/>
        <stop offset="0.54" stop-color="#655af1"/>
        <stop offset="0.76" stop-color="#7b5bf5"/>
    </linearGradient>
    <path d="m 121.578125 58.835938 l -52.421875 -52.417969 c -2.914062 -2.914063 -7.640625 -2.914063 -10.554688 0 l -52.421874 52.417969 c -2.914063 2.917968 -2.914063 7.644531 0 10.558593 l 52.421874 52.417969 c 2.914063 2.917969 7.640626 2.917969 10.554688 0 l 52.421875 -52.417969 c 2.914063 -2.914062 2.914063 -7.640625 0 -10.558593 z m 0 0" fill="url(#a)"/>
    <path d="m 82.789062 62.859375 l -24.636718 -17.125 c -1.261719 -0.875 -2.988282 0.027344 -2.988282 1.5625 v 34.25 c 0 1.535156 1.726563 2.4375 2.988282 1.5625 l 24.636718 -17.125 c 1.089844 -0.757813 1.089844 -2.367187 0 -3.125 z m 0 0" fill="#ffffff"/>
</svg>
