<?xml version="1.0" encoding="UTF-8"?>
<svg height="128px" viewBox="0 0 128 128" width="128px" xmlns="http://www.w3.org/2000/svg" xmlns:xlink="http://www.w3.org/1999/xlink">
    <filter id="a" height="100%" width="100%" x="0%" y="0%">
        <feColorMatrix color-interpolation-filters="sRGB" values="0 0 0 0 1 0 0 0 0 1 0 0 0 0 1 0 0 0 1 0"/>
    </filter>
    <linearGradient id="b" gradientUnits="userSpaceOnUse" x1="61.13679643347" x2="66.96079945438" y1="112.90134562106" y2="9.26012744968">
        <stop offset="0" stop-color="#1155d9"/>
        <stop offset="0.07" stop-color="#1c55dc"/>
        <stop offset="0.39" stop-color="#5058eb"/>
        <stop offset="0.54" stop-color="#655af1"/>
        <stop offset="0.76" stop-color="#7b5bf5"/>
    </linearGradient>
    <clipPath id="c">
        <rect height="128" width="128"/>
    </clipPath>
    <clipPath id="d">
        <rect height="128" width="128"/>
    </clipPath>
    <mask id="e">
        <g filter="url(#a)">
            <g clip-path="url(#d)" filter="url(#a)">
                <g clip-path="url(#c)">
                    <path d="m 121.578125 58.835938 l -52.421875 -52.417969 c -2.914062 -2.914063 -7.640625 -2.914063 -10.554688 0 l -52.421874 52.417969 c -2.914063 2.917968 -2.914063 7.644531 0 10.558593 l 52.421874 52.417969 c 2.914063 2.917969 7.640626 2.917969 10.554688 0 l 52.421875 -52.417969 c 2.914063 -2.914062 2.914063 -7.640625 0 -10.558593 z m 0 0" fill="url(#b)"/>
                    <path d="m 82.789062 62.859375 l -24.636718 -17.125 c -1.261719 -0.875 -2.988282 0.027344 -2.988282 1.5625 v 34.25 c 0 1.535156 1.726563 2.4375 2.988282 1.5625 l 24.636718 -17.125 c 1.089844 -0.757813 1.089844 -2.367187 0 -3.125 z m 0 0" fill="#ffffff"/>
                </g>
            </g>
        </g>
    </mask>
    <mask id="f">
        <g filter="url(#a)">
            <rect fill-opacity="0.8" height="184.32" width="184.32" x="-28.16" y="-28.16"/>
        </g>
    </mask>
    <linearGradient id="g" gradientTransform="matrix(0 0.37 -0.98462 0 295.38501 -30.360001)" gradientUnits="userSpaceOnUse" x1="300" x2="428" y1="235" y2="235">
        <stop offset="0" stop-color="#f9f06b"/>
        <stop offset="1" stop-color="#f5c211"/>
    </linearGradient>
    <clipPath id="h">
        <rect height="128" width="128"/>
    </clipPath>
    <clipPath id="i">
        <rect height="128" width="128"/>
    </clipPath>
    <path d="m 121.578125 58.835938 l -52.421875 -52.417969 c -2.914062 -2.914063 -7.640625 -2.914063 -10.554688 0 l -52.421874 52.417969 c -2.914063 2.917968 -2.914063 7.644531 0 10.558593 l 52.421874 52.417969 c 2.914063 2.917969 7.640626 2.917969 10.554688 0 l 52.421875 -52.417969 c 2.914063 -2.914062 2.914063 -7.640625 0 -10.558593 z m 0 0" fill="url(#b)"/>
    <path d="m 82.789062 62.859375 l -24.636718 -17.125 c -1.261719 -0.875 -2.988282 0.027344 -2.988282 1.5625 v 34.25 c 0 1.535156 1.726563 2.4375 2.988282 1.5625 l 24.636718 -17.125 c 1.089844 -0.757813 1.089844 -2.367187 0 -3.125 z m 0 0" fill="#ffffff"/>
    <g mask="url(#e)">
        <g clip-path="url(#i)">
            <g mask="url(#f)">
                <g clip-path="url(#h)">
                    <path d="m 128 80.640625 v 47.359375 h -128 v -47.359375 z m 0 0" fill="url(#g)"/>
                    <path d="m 13.308594 80.640625 l 47.355468 47.359375 h 21.214844 l -47.359375 -47.359375 z m 42.421875 0 l 47.363281 47.359375 h 21.214844 l -47.363282 -47.359375 z m 42.429687 0 l 29.839844 29.839844 v -21.210938 l -8.628906 -8.628906 z m -98.160156 7.90625 v 21.214844 l 18.238281 18.238281 h 21.214844 z m 0 0"/>
                </g>
            </g>
        </g>
    </g>
</svg>
